<svg width="274" height="384" viewBox="0 0 274 384" fill="none" xmlns="http://www.w3.org/2000/svg">
<path d="M22.82 77.408C48.0307 75.6693 70.3073 74.8 89.65 74.8C143.331 74.8 170.172 92.73 170.172 128.59C170.172 142.065 166.26 153.692 158.436 163.472C150.612 173.035 138.115 179.555 120.946 183.032C137.463 184.988 150.503 189.987 160.066 198.028C169.629 206.069 174.41 220.087 174.41 240.082C174.41 282.027 147.569 303 93.888 303H22.82V77.408ZM49.878 299.74H93.888C113.231 299.74 126.923 294.741 134.964 284.744C143.223 274.529 147.352 258.99 147.352 238.126C147.352 217.262 143.223 203.353 134.964 196.398C126.705 189.443 114.426 185.749 98.126 185.314H49.878V299.74ZM89.65 78.06C77.0447 78.06 63.7873 78.8207 49.878 80.342V182.054H98.126C128.77 180.75 144.092 163.146 144.092 129.242C144.092 112.725 139.528 100.119 130.4 91.426C121.272 82.5153 107.689 78.06 89.65 78.06Z" fill="white"/>
<path d="M180 228H228V232H177L180 228Z" fill="white"/>
<path d="M188 75L192 73L274 303H246.5L180 94.5L188 75Z" fill="white"/>
</svg>
